<svg width="344" height="150" viewBox="0 0 344 150" fill="none" xmlns="http://www.w3.org/2000/svg">
<path d="M343.665 -0.250061H0V74.7499H343.665V-0.250061Z" fill="#FF267E"/>
<path d="M58.4392 35.859H33.3006V28.5737H63.691V18.5009H18.73V55.999H33.3006V45.928H58.4392V35.859Z" fill="#000055"/>
<path d="M138.316 43.4656L124.975 18.5009H108.264L129.904 55.999H146.512L168.153 18.5009H151.654L138.316 43.4656Z" fill="#000055"/>
<path d="M203.692 46.9977H186.251V41.3188H203.692C205.567 41.3188 206.905 42.498 206.905 44.1573C206.905 45.8185 205.567 46.9977 203.692 46.9977ZM186.251 27.5022H202.515C204.39 27.5022 205.73 28.6796 205.73 30.3388C205.73 32 204.39 33.1793 202.515 33.1793H186.251V27.5022ZM214.824 36.957C218.622 35.1069 220.406 32.1871 220.406 28.8931C220.406 22.7323 215.211 18.5009 204.979 18.5009H172.055V55.999H205.73C216.711 55.999 221.583 51.66 221.583 45.3914C221.583 41.8857 219.463 38.7032 214.824 36.957Z" fill="#000055"/>
<path d="M243.066 41.3206H268.152V33.1811H243.066V28.5756H270.801V18.5009H228.496V56.0009H271.461V45.928H243.066V41.3206Z" fill="#000055"/>
<path d="M277.504 18.5009V28.5718H293.851V55.999H308.584V28.5718H324.933V18.5009H277.504Z" fill="#000055"/>
<path d="M82.5772 40.7272L88.9762 28.6568L95.3733 40.7272H82.5772ZM80.6458 18.5009L59.0034 55.999H74.4849L77.4123 50.4769H100.54L103.467 55.999H119.59L97.9491 18.5009H80.6458Z" fill="#000055"/>
<path d="M84.9273 74.7499H0V149.75H84.9273V74.7499Z" fill="#FF267E"/>
<path d="M14.3198 112.231L26.6586 133.996L42.4855 133.998L30.1467 112.232L14.3198 112.231Z" fill="#000055"/>
<path d="M54.8183 112.218L42.4809 133.984L58.3068 133.983L70.6442 112.216L54.8183 112.218Z" fill="#000055"/>
<path d="M42.4491 90.5192L30.1104 112.235H54.7859L42.4491 90.5192Z" fill="#000055"/>
</svg>
